:SAMPLES-PER-SECOND 30
:FRAME-RANGE 1-663
:FULLY-SPECIFIED
:DEGREES
353
root  -20.8187 38.623 29.1074 -177.703 4.68687 -174.196
RightUpLeg  -20.9487 0.341691 7.09179
RightLeg  16.0593 -11.127 -2.01843
RightFoot  1.59731 0.0515722 -0.358501
RightToes  -3.4386e-010 1.2921e-014 -6.02303e-014
Spine  -7.66436 -5.68762 4.36742
Spine1  8.89317 -7.27903 5.24215
HEad  17.3687 -26.7055 0.713303
LeftShoulder1  1.75702 -3.44898 -19.7948
LeftArm  -2.54852 -2.93569 -57.4454
LeftForeArm  25.2035 -3.15992 -11.9816
LeftHand  -0.0669022 4.03804 3.5138
RightShoulder  0.977927 -0.416826 27.7534
RightArm  -38.9493 -8.44936 46.5681
RightForeArm  72.4278 -3.75892 -4.93937
RightHand  0.577253 -9.1241 -18.4173
LeftUpLeg  4.4927 -0.703494 6.1707
LeftLeg  40.4035 -2.27039 -1.6895
LeftFoot  -0.427891 1.5634 -16.249
LeftToes  -7.12384e-010 -7.51861e-011 -8.34901e-011
354
root  -20.5685 38.6177 27.9522 -177.733 5.14836 -173.45
RightUpLeg  -19.5983 -0.435564 8.04481
RightLeg  17.5996 -9.89591 -1.3595
RightFoot  -1.06358 0.0966168 -1.15414
RightToes  -3.4386e-010 1.2921e-014 -6.02303e-014
Spine  -7.293 -6.11571 5.16511
Spine1  9.0928 -7.6422 5.78664
HEad  16.9665 -29.374 1.83755
LeftShoulder1  1.82992 -3.75116 -19.709
LeftArm  -2.44032 -1.45464 -57.0496
LeftForeArm  26.5984 -2.84146 -12.1164
LeftHand  -0.064226 3.90191 3.59413
RightShoulder  0.885427 -0.667541 27.4244
RightArm  -37.8383 -8.82933 46.8863
RightForeArm  70.5065 -4.00649 -3.9608
RightHand  0.45154 -8.42137 -17.903
LeftUpLeg  -0.790019 0.0539304 7.71037
LeftLeg  49.6466 -1.73166 -1.74762
LeftFoot  9.41797 3.19709 -17.6512
LeftToes  -7.12384e-010 -7.51861e-011 -8.34901e-011
355
root  -20.3824 38.595 26.8287 -177.906 7.07929 -172.929
RightUpLeg  -18.103 -1.33219 8.99863
RightLeg  19.1792 -7.10958 -0.565279
RightFoot  -3.65449 0.0957148 -1.79285
RightToes  -3.4386e-010 1.2921e-014 -6.02303e-014
Spine  -6.43433 -6.13698 5.78276
Spine1  8.87624 -7.5242 6.07096
HEad  16.602 -31.8849 2.46066
LeftShoulder1  1.81424 -3.5495 -20.2817
LeftArm  -2.00909 -0.752868 -55.883
LeftForeArm  28.0392 -1.7118 -12.4114
LeftHand  -0.0622189 3.84472 3.31392
RightShoulder  0.99019 -0.339136 27.2671
RightArm  -36.2796 -8.32298 47.1236
RightForeArm  69.1974 -4.25796 -2.81052
RightHand  0.432007 -8.44072 -17.1101
LeftUpLeg  -5.52586 1.51941 8.4932
LeftLeg  56.841 -1.04935 -1.21941
LeftFoot  16.7548 3.87558 -15.8219
LeftToes  -7.12384e-010 -7.51861e-011 -8.34901e-011
356
root  -20.1838 38.6303 25.6978 -177.903 9.45443 -172.874
RightUpLeg  -16.3786 -1.52675 9.45836
RightLeg  19.9746 -4.83613 -0.0241206
RightFoot  -5.68433 0.0742516 -2.28106
RightToes  -3.4386e-010 1.2921e-014 -6.02303e-014
Spine  -5.94202 -6.05943 5.50831
Spine1  8.58677 -7.38625 6.42041
HEad  16.4952 -33.9206 2.81537
LeftShoulder1  1.74816 -3.29983 -20.2805
LeftArm  -2.5139 0.176449 -55.3548
LeftForeArm  28.397 -0.0635737 -12.4685
LeftHand  -0.0530792 4.0843 2.97606
RightShoulder  1.08104 -0.0662525 27.2839
RightArm  -34.8466 -6.93463 47.4637
RightForeArm  69.9658 -4.38833 -1.88807
RightHand  0.464912 -8.8056 -16.4613
LeftUpLeg  -9.87264 2.8221 8.67324
LeftLeg  61.9246 -1.07264 -1.591
LeftFoot  11.4641 2.72978 -13.83
LeftToes  -7.12384e-010 -7.51861e-011 -8.34901e-011
357
root  -19.9839 38.6637 24.5647 -177.879 11.7922 -172.978
RightUpLeg  -14.6614 -1.59809 9.59946
RightLeg  20.7101 -2.49997 0.481222
RightFoot  -7.74483 0.0323332 -2.69766
RightToes  -3.4386e-010 1.2921e-014 -6.02303e-014
Spine  -5.57086 -5.99356 5.05471
Spine1  8.23352 -7.30465 6.74766
HEad  16.8829 -35.3456 2.97473
LeftShoulder1  1.69993 -3.14957 -20.1393
LeftArm  -2.88814 1.69582 -55.0031
LeftForeArm  28.8617 0.648205 -12.4598
LeftHand  -0.0436307 4.48239 2.79386
RightShoulder  1.08193 -0.0346034 26.9775
RightArm  -34.0925 -5.91582 48.5753
RightForeArm  70.9429 -4.45186 -1.29931
RightHand  0.395523 -8.38731 -16.0799
LeftUpLeg  -14.0833 3.27546 8.63247
LeftLeg  64.243 -0.856353 -1.29444
LeftFoot  6.37683 1.89398 -12.3634
LeftToes  -7.12384e-010 -7.51861e-011 -8.34901e-011
358
root  -19.7887 38.7175 23.4271 -177.98 14.148 -173.318
RightUpLeg  -12.7223 -1.40404 9.4195
RightLeg  21.182 -0.63449 0.728634
RightFoot  -9.56423 -0.0169096 -3.07763
RightToes  -3.4386e-010 1.2921e-014 -6.02303e-014
Spine  -5.31242 -5.88464 4.37966
Spine1  7.95332 -7.20997 6.90353
HEad  16.8856 -36.3648 3.62323
LeftShoulder1  1.72382 -3.26322 -20.0412
LeftArm  -2.94466 3.16888 -54.7105
LeftForeArm  30.7497 0.788705 -12.5195
LeftHand  -0.0358275 5.06546 4.64155
RightShoulder  1.0881 0.0171973 26.6365
RightArm  -31.47 -4.92433 49.3974
RightForeArm  68.7681 -4.83729 0.457141
RightHand  0.30345 -7.7803 -15.68
LeftUpLeg  -17.7985 3.03933 8.39428
LeftLeg  63.8582 0.0049263 0.650103
LeftFoot  1.92734 1.28827 -11.1506
LeftToes  -7.12384e-010 -7.51861e-011 -8.34901e-011
359
root  -19.5941 38.7679 22.2876 -178.018 16.6025 -173.733
RightUpLeg  -10.7449 -1.44837 8.98549
RightLeg  21.4326 1.472 1.19468
RightFoot  -11.2647 -0.0738773 -3.36741
RightToes  -3.4386e-010 1.2921e-014 -6.02303e-014
Spine  -5.28573 -5.71858 3.50665
Spine1  7.69659 -7.10366 6.95057
HEad  16.6282 -37.0941 4.7114
LeftShoulder1  1.75445 -3.43437 -19.8143
LeftArm  -2.77755 3.81903 -54.5117
LeftForeArm  31.7027 1.277 -12.6193
LeftHand  -0.0350635 5.08999 4.70557
RightShoulder  1.0743 0.0105179 26.2685
RightArm  -30.0882 -4.48116 50.5497
RightForeArm  66.4318 -5.0872 1.40939
RightHand  0.18517 -6.89895 -15.6178
LeftUpLeg  -20.9924 2.59771 8.49295
LeftLeg  61.1724 1.1595 2.86999
LeftFoot  -2.36959 0.839971 -10.5046
LeftToes  -7.12384e-010 -7.51861e-011 -8.34901e-011
360
root  -19.4185 38.8089 21.1857 -178.126 19.181 -174.332
RightUpLeg  -8.86847 -0.471225 8.30426
RightLeg  21.556 3.01112 1.23508
RightFoot  -12.8247 -0.137253 -3.90757
RightToes  -3.4386e-010 1.2921e-014 -6.02303e-014
Spine  -4.96837 -5.49844 2.4783
Spine1  6.94898 -6.88225 6.72005
HEad  16.5133 -37.3394 5.56826
LeftShoulder1  1.795 -3.6385 -19.6203
LeftArm  -2.19903 4.23485 -54.283
LeftForeArm  29.6848 0.979055 -12.8733
LeftHand  -0.0406395 4.92582 4.60686
RightShoulder  1.06358 -0.00199216 26.0557
RightArm  -28.5456 -4.11288 51.5874
RightForeArm  63.1734 -3.2632 2.69324
RightHand  0.103094 -6.28768 -15.493
LeftUpLeg  -23.5555 1.50112 8.67896
LeftLeg  56.4731 2.66999 4.84301
LeftFoot  -5.53475 0.492431 -9.04339
LeftToes  -7.12384e-010 -7.51861e-011 -8.34901e-011
361
root  -19.253 38.822 20.0988 -178.132 21.7565 -174.892
RightUpLeg  -7.24532 1.5074 7.58962
RightLeg  21.8206 3.50981 1.08324
RightFoot  -14.2833 -0.194208 -3.80302
RightToes  -3.4386e-010 1.2921e-014 -6.02303e-014
Spine  -5.35214 -5.37047 1.71509
Spine1  6.9709 -6.70612 5.87796
HEad  16.3932 -37.0215 6.40822
LeftShoulder1  1.80247 -3.7061 -19.4671
LeftArm  -2.50573 3.92802 -54.2771
LeftForeArm  28.62 0.475707 -12.7515
LeftHand  -0.0485179 4.63592 4.20319
RightShoulder  1.05824 -0.0394314 26.2684
RightArm  -27.1398 -2.85755 52.3654
RightForeArm  59.4096 0.890409 4.10186
RightHand  -0.00764833 -5.43856 -15.9395
LeftUpLeg  -25.482 -0.455005 9.43492
LeftLeg  50.0925 4.57244 6.27502
LeftFoot  -6.81081 0.39778 -9.01249
LeftToes  -7.12384e-010 -7.51861e-011 -8.34901e-011
362
root  -19.093 38.8117 19.0267 -178.07 24.208 -175.38
RightUpLeg  -5.84101 4.9773 6.93948
RightLeg  22.1639 2.54936 0.663861
RightFoot  -15.6182 -0.229911 -3.32951
RightToes  -3.4386e-010 1.2921e-014 -6.02303e-014
Spine  -5.17901 -5.24677 0.904267
Spine1  6.22837 -6.50707 5.19438
HEad  16.3254 -36.7777 7.16837
LeftShoulder1  1.83625 -3.89473 -19.2479
LeftArm  -2.58162 3.17976 -54.4968
LeftForeArm  28.3543 -0.146178 -12.6568
LeftHand  -0.0487788 4.68894 4.58206
RightShoulder  1.05286 -0.0855953 26.5764
RightArm  -25.2395 -2.63833 52.5866
RightForeArm  54.304 6.5745 5.95344
RightHand  -0.0537398 -5.09325 -15.6247
LeftUpLeg  -26.7634 -3.4231 10.8998
LeftLeg  42.4808 6.6632 6.87693
LeftFoot  -6.4242 0.444541 -9.44292
LeftToes  -7.12384e-010 -7.51861e-011 -8.34901e-011
363
root  -18.9636 38.7395 17.9582 -178.066 26.8559 -175.85
RightUpLeg  -4.66628 8.51798 6.25309
RightLeg  23.008 1.48314 0.462862
RightFoot  -17.1295 -0.2936 -3.51628
RightToes  -3.4386e-010 1.2921e-014 -6.02303e-014
Spine  -4.84139 -5.11164 -0.328396
Spine1  5.52681 -6.38193 5.07677
HEad  16.1549 -36.26 7.78213
LeftShoulder1  1.87369 -4.08049 -19.1035
LeftArm  -1.95979 1.84856 -54.7467
LeftForeArm  27.0252 -1.06468 -12.738
LeftHand  -0.0528037 4.61795 4.85646
RightShoulder  1.08389 0.020173 26.4733
RightArm  -20.6571 -2.23287 53.0517
RightForeArm  44.7473 12.238 6.72822
RightHand  -0.115148 -4.63611 -15.8007
LeftUpLeg  -27.2857 -7.17105 13.1706
LeftLeg  33.9504 7.85526 6.00271
LeftFoot  -4.79132 0.612268 -10.1794
LeftToes  -7.12384e-010 -7.51861e-011 -8.34901e-011
364
root  -18.8216 38.6301 16.8673 -178.208 29.364 -176.36
RightUpLeg  -3.44681 10.7945 5.37609
RightLeg  23.9067 1.79271 0.643658
RightFoot  -18.8626 -0.329891 -3.07785
RightToes  -3.4386e-010 1.2921e-014 -6.02303e-014
Spine  -4.81091 -5.12401 -1.87658
Spine1  5.50661 -6.43436 5.15029
HEad  15.5983 -35.4083 8.90598
LeftShoulder1  1.8717 -4.22908 -18.5357
LeftArm  -1.88755 0.0903674 -55.5203
LeftForeArm  26.1513 -1.96745 -12.595
LeftHand  -0.0586975 4.53853 5.31766
RightShoulder  1.14128 0.232425 26.1401
RightArm  -14.4234 -1.70013 54.0284
RightForeArm  32.3637 17.9698 5.1412
RightHand  0.00327874 -5.51857 -15.9973
LeftUpLeg  -27.271 -12.3749 16.3066
LeftLeg  25.0379 6.74277 3.75519
LeftFoot  -4.4949 0.644273 -10.3007
LeftToes  -7.12384e-010 -7.51861e-011 -8.34901e-011
